<?xml version="1.0" standalone="no"?>
<!DOCTYPE svg PUBLIC "-//W3C//DTD SVG 20010904//EN"
 "http://www.w3.org/TR/2001/REC-SVG-20010904/DTD/svg10.dtd">
<svg version="1.0" xmlns="http://www.w3.org/2000/svg"
 width="400.000000pt" height="600.000000pt" viewBox="0 0 400.000000 600.000000"
 preserveAspectRatio="xMidYMid meet">
<g transform="translate(0.000000,600.000000) scale(0.100000,-0.100000)"
fill="#000000" stroke="none">
<path d="M2243 4823 c-48 -26 -119 -115 -142 -178 -27 -72 -64 -206 -91 -330
-12 -55 -26 -122 -32 -150 -19 -88 -21 -28 -3 116 34 272 -1 419 -100 419 -37
0 -77 -34 -131 -111 -63 -91 -120 -354 -218 -999 -44 -285 -104 -550 -125
-550 -15 0 -59 95 -100 213 -53 155 -103 248 -171 320 -45 47 -71 64 -140 92
-46 19 -95 35 -108 35 -13 0 -37 -13 -53 -29 -38 -39 -38 -84 1 -193 17 -46
69 -216 116 -378 155 -538 174 -577 449 -950 148 -200 165 -246 185 -483 13
-164 30 -197 75 -147 16 17 17 32 11 127 -16 241 -52 346 -175 512 -279 375
-318 449 -415 786 -26 88 -58 200 -72 248 -15 48 -25 89 -23 90 2 2 16 8 32
15 15 6 36 26 48 44 17 28 20 45 16 106 -2 39 -3 72 -2 72 1 0 20 -26 42 -57
44 -65 68 -117 119 -266 37 -106 70 -175 103 -217 17 -21 18 -27 6 -50 -12
-22 -11 -29 5 -50 l19 -25 28 21 c42 31 99 154 132 289 26 105 86 446 121 690
14 99 90 498 95 503 2 3 19 -8 37 -23 27 -22 39 -26 71 -22 l40 5 -6 -61 c-4
-34 -13 -138 -22 -232 -44 -491 -45 -533 -16 -559 49 -44 67 8 156 439 24 121
63 302 86 401 l42 182 34 -35 c30 -33 36 -35 78 -31 39 5 45 3 41 -11 -29 -99
-110 -657 -122 -848 -6 -86 -4 -100 10 -113 26 -21 48 -2 68 57 9 27 55 202
103 389 87 343 114 443 122 457 2 4 15 -6 29 -22 28 -34 63 -45 99 -31 23 9
26 8 21 -7 -3 -10 -10 -38 -15 -63 -5 -25 -20 -97 -34 -160 -24 -107 -58 -292
-72 -385 -42 -278 -44 -324 -17 -348 39 -36 51 -12 172 353 43 129 85 250 93
269 14 33 15 34 26 13 15 -28 67 -55 91 -47 25 8 25 -2 1 -90 -67 -243 -121
-549 -136 -769 -6 -95 -32 -329 -45 -406 -5 -30 -11 -68 -14 -85 -14 -94 -53
-240 -103 -390 l-58 -170 0 -236 c0 -219 1 -239 19 -258 22 -24 41 -27 53 -8
4 6 8 113 8 237 1 243 5 270 65 435 57 155 116 438 135 640 3 39 8 84 10 100
2 17 11 113 20 215 17 197 48 360 136 713 39 158 49 216 49 282 0 75 -3 87
-26 114 -36 44 -78 42 -141 -5 -82 -62 -109 -106 -179 -294 -24 -63 -43 -104
-43 -91 -1 33 43 249 85 413 50 202 44 341 -18 393 -51 43 -92 30 -174 -57
-55 -58 -95 -146 -137 -301 -33 -123 -32 -62 3 107 16 82 30 173 30 202 0 161
-71 255 -157 207z m79 -33 c19 -14 30 -39 43 -94 l17 -74 -40 -208 c-58 -295
-130 -769 -118 -781 2 -2 7 11 11 29 16 79 128 524 159 633 58 204 72 233 141
303 64 64 93 75 129 49 18 -13 46 -109 46 -160 0 -15 -25 -134 -55 -265 -43
-187 -146 -740 -145 -779 0 -4 43 119 95 275 118 355 155 434 228 490 63 49
109 56 128 20 28 -51 20 -143 -27 -323 -77 -298 -124 -532 -139 -695 -60 -619
-85 -765 -181 -1046 -54 -159 -68 -279 -56 -487 6 -127 3 -161 -16 -142 -4 4
-7 113 -7 243 l0 237 57 170 c93 275 126 461 163 895 19 222 34 320 86 550 36
157 101 407 116 448 4 9 2 13 -4 9 -6 -4 -13 -20 -16 -35 -10 -48 -54 -92 -92
-92 -18 0 -38 6 -44 14 -20 24 -23 79 -7 131 8 27 14 51 12 52 -11 11 -88
-184 -180 -456 -113 -333 -123 -358 -136 -345 -23 24 75 612 156 936 49 199
54 233 19 138 -27 -74 -53 -100 -99 -100 -71 1 -91 55 -61 170 25 96 -11 30
-51 -95 -28 -85 -216 -796 -241 -913 -9 -38 -28 -19 -25 24 16 221 72 621 126
889 25 121 43 222 40 224 -4 4 -7 -4 -24 -72 -25 -94 -94 -134 -145 -82 -21
20 -25 34 -25 82 0 32 4 73 9 91 6 19 6 30 1 27 -24 -15 -96 -300 -189 -750
-71 -340 -99 -447 -115 -442 -7 2 -10 27 -8 68 7 157 45 591 67 763 14 105 23
192 20 194 -2 2 -7 -9 -10 -24 -21 -101 -36 -127 -85 -139 -35 -8 -76 25 -84
68 -3 18 -2 55 3 81 15 83 -6 35 -38 -84 -34 -127 -87 -404 -126 -665 -67
-444 -111 -650 -160 -751 -28 -58 -62 -104 -76 -104 -16 0 -10 21 15 51 67 79
115 279 201 839 80 521 132 734 197 814 58 72 65 79 91 79 36 0 54 -17 67 -61
6 -20 16 -54 22 -74 9 -31 6 -81 -16 -260 -25 -215 -68 -680 -62 -685 1 -2 24
104 50 234 70 347 131 613 171 739 28 89 44 122 78 164 42 50 79 79 103 80 6
0 23 -9 36 -20z m-1349 -1149 c142 -50 221 -153 301 -395 40 -118 65 -174 102
-223 26 -34 30 -53 14 -53 -18 0 -88 119 -111 188 -86 262 -161 387 -266 441
-20 10 -20 7 9 -48 38 -74 46 -136 24 -180 -24 -45 -58 -59 -92 -36 -22 14
-26 15 -21 3 3 -9 35 -120 72 -249 141 -492 169 -550 437 -910 111 -149 124
-171 149 -249 36 -114 64 -400 40 -400 -14 0 -18 19 -20 100 -5 187 -46 334
-124 442 -30 40 -96 132 -149 205 -197 273 -235 359 -378 878 -22 83 -59 202
-82 265 -50 140 -58 202 -32 231 21 23 37 22 127 -10z"/>
<path d="M2242 4757 c-51 -54 -80 -203 -48 -252 22 -33 58 -33 85 2 44 54 68
202 42 251 -15 29 -51 29 -79 -1z m56 -90 c-6 -87 -33 -152 -63 -152 -16 0
-21 8 -23 38 -4 48 14 134 34 164 8 13 24 23 36 23 20 0 20 -4 16 -73z"/>
<path d="M1841 4626 c-46 -49 -69 -206 -35 -240 21 -21 50 -20 73 3 38 38 55
197 25 239 -19 28 -35 28 -63 -2z m46 -96 c-5 -82 -26 -135 -50 -127 -17 5
-21 82 -7 136 13 52 26 71 48 71 12 0 14 -13 9 -80z"/>
<path d="M2571 4593 c-50 -61 -72 -203 -35 -230 29 -21 51 -15 78 20 28 37 56
125 56 174 0 80 -48 98 -99 36z m63 -54 c-1 -70 -35 -149 -63 -149 -18 0 -21
6 -21 50 0 53 19 112 47 142 26 29 38 15 37 -43z"/>
<path d="M2878 4210 c-55 -42 -90 -182 -55 -217 27 -28 64 -3 93 63 34 77 41
135 19 157 -21 22 -27 21 -57 -3z m42 -46 c0 -36 -50 -144 -66 -144 -32 0 -13
105 28 158 18 21 38 14 38 -14z"/>
<path d="M855 3620 c-19 -59 78 -270 124 -270 10 0 26 9 36 20 39 43 -9 203
-74 249 -38 27 -78 28 -86 1z m65 -25 c40 -21 82 -110 78 -166 -5 -66 -27 -56
-70 31 -35 71 -58 150 -44 150 4 0 20 -7 36 -15z"/>
</g>
</svg>
